<svg width="85" height="71" viewBox="0 0 85 71" fill="none" xmlns="http://www.w3.org/2000/svg">
<path d="M73.1 0.466309L35 0.566228V16.4535H29V29.443H35V35.4382H0V61.4174H35V70.4102H84V11.5574L84.1 11.4575L73.1 0.466309ZM73 4.66294L79.9 11.5574H73V4.66294ZM32 26.4455V19.4511H46V26.4455H32ZM45.5 38.4358L24.5 46.8291L3.5 38.4358H45.5ZM3 58.4198V41.4334L24.5 50.0265L46 41.4334V58.4198H3ZM81 67.4126H38V64.415H46V61.4174H49V35.4382H38V32.4406H46V29.443H49V16.4535H38V3.56382H70V14.555H73V17.5526H81V67.4126Z" fill="#2B59C3"/>
</svg>
